<mxfile host="app.diagrams.net" modified="2022-04-28T13:07:52.490Z" agent="5.0 (Macintosh; Intel Mac OS X 10_15_7) AppleWebKit/537.36 (KHTML, like Gecko) Chrome/100.0.4896.127 Safari/537.36" etag="gKgJl_gkzm0hVD5PeEBo" version="17.4.6" type="github">
  <diagram id="R2lEEEUBdFMjLlhIrx00" name="Page-1">
    <mxGraphModel dx="298" dy="487" grid="1" gridSize="10" guides="1" tooltips="1" connect="1" arrows="1" fold="1" page="1" pageScale="1" pageWidth="850" pageHeight="1100" math="0" shadow="0" extFonts="Permanent Marker^https://fonts.googleapis.com/css?family=Permanent+Marker">
      <root>
        <mxCell id="0" />
        <mxCell id="1" parent="0" />
        <mxCell id="ZW3YACwHZN-Id6LKbrf3-26" style="edgeStyle=orthogonalEdgeStyle;rounded=0;orthogonalLoop=1;jettySize=auto;html=1;exitX=0.5;exitY=1;exitDx=0;exitDy=0;entryX=0.5;entryY=0;entryDx=0;entryDy=0;" edge="1" parent="1" source="ZW3YACwHZN-Id6LKbrf3-1" target="ZW3YACwHZN-Id6LKbrf3-25">
          <mxGeometry relative="1" as="geometry" />
        </mxCell>
        <mxCell id="ZW3YACwHZN-Id6LKbrf3-1" value="Alumno" style="rounded=0;whiteSpace=wrap;html=1;" vertex="1" parent="1">
          <mxGeometry x="470" y="770" width="120" height="60" as="geometry" />
        </mxCell>
        <mxCell id="ZW3YACwHZN-Id6LKbrf3-13" style="edgeStyle=orthogonalEdgeStyle;rounded=0;orthogonalLoop=1;jettySize=auto;html=1;exitX=0.5;exitY=1;exitDx=0;exitDy=0;" edge="1" parent="1" source="ZW3YACwHZN-Id6LKbrf3-3" target="ZW3YACwHZN-Id6LKbrf3-1">
          <mxGeometry relative="1" as="geometry" />
        </mxCell>
        <mxCell id="ZW3YACwHZN-Id6LKbrf3-3" value="DNI" style="ellipse;whiteSpace=wrap;html=1;align=center;fontStyle=4;" vertex="1" parent="1">
          <mxGeometry x="380" y="620" width="100" height="40" as="geometry" />
        </mxCell>
        <mxCell id="ZW3YACwHZN-Id6LKbrf3-14" style="edgeStyle=orthogonalEdgeStyle;rounded=0;orthogonalLoop=1;jettySize=auto;html=1;exitX=0.5;exitY=1;exitDx=0;exitDy=0;entryX=0.5;entryY=0;entryDx=0;entryDy=0;" edge="1" parent="1" source="ZW3YACwHZN-Id6LKbrf3-4" target="ZW3YACwHZN-Id6LKbrf3-1">
          <mxGeometry relative="1" as="geometry" />
        </mxCell>
        <mxCell id="ZW3YACwHZN-Id6LKbrf3-4" value="Nombre" style="ellipse;whiteSpace=wrap;html=1;align=center;" vertex="1" parent="1">
          <mxGeometry x="480" y="620" width="100" height="40" as="geometry" />
        </mxCell>
        <mxCell id="ZW3YACwHZN-Id6LKbrf3-15" style="edgeStyle=orthogonalEdgeStyle;rounded=0;orthogonalLoop=1;jettySize=auto;html=1;exitX=0.5;exitY=1;exitDx=0;exitDy=0;" edge="1" parent="1" source="ZW3YACwHZN-Id6LKbrf3-5">
          <mxGeometry relative="1" as="geometry">
            <mxPoint x="529.9999999999999" y="770" as="targetPoint" />
          </mxGeometry>
        </mxCell>
        <mxCell id="ZW3YACwHZN-Id6LKbrf3-5" value="Apellidos" style="ellipse;whiteSpace=wrap;html=1;align=center;" vertex="1" parent="1">
          <mxGeometry x="580" y="620" width="100" height="40" as="geometry" />
        </mxCell>
        <mxCell id="ZW3YACwHZN-Id6LKbrf3-16" style="edgeStyle=orthogonalEdgeStyle;rounded=0;orthogonalLoop=1;jettySize=auto;html=1;exitX=0.5;exitY=1;exitDx=0;exitDy=0;entryX=0.5;entryY=0;entryDx=0;entryDy=0;" edge="1" parent="1" source="ZW3YACwHZN-Id6LKbrf3-6" target="ZW3YACwHZN-Id6LKbrf3-1">
          <mxGeometry relative="1" as="geometry" />
        </mxCell>
        <mxCell id="ZW3YACwHZN-Id6LKbrf3-6" value="Fecha de nacimiento" style="ellipse;whiteSpace=wrap;html=1;align=center;" vertex="1" parent="1">
          <mxGeometry x="680" y="620" width="100" height="40" as="geometry" />
        </mxCell>
        <mxCell id="ZW3YACwHZN-Id6LKbrf3-17" style="edgeStyle=orthogonalEdgeStyle;rounded=0;orthogonalLoop=1;jettySize=auto;html=1;exitX=0.5;exitY=1;exitDx=0;exitDy=0;entryX=0.5;entryY=0;entryDx=0;entryDy=0;" edge="1" parent="1" source="ZW3YACwHZN-Id6LKbrf3-8" target="ZW3YACwHZN-Id6LKbrf3-6">
          <mxGeometry relative="1" as="geometry" />
        </mxCell>
        <mxCell id="ZW3YACwHZN-Id6LKbrf3-8" value="Dia" style="ellipse;whiteSpace=wrap;html=1;align=center;" vertex="1" parent="1">
          <mxGeometry x="640" y="540" width="100" height="40" as="geometry" />
        </mxCell>
        <mxCell id="ZW3YACwHZN-Id6LKbrf3-18" style="edgeStyle=orthogonalEdgeStyle;rounded=0;orthogonalLoop=1;jettySize=auto;html=1;exitX=0.5;exitY=1;exitDx=0;exitDy=0;entryX=0.5;entryY=0;entryDx=0;entryDy=0;" edge="1" parent="1" source="ZW3YACwHZN-Id6LKbrf3-10" target="ZW3YACwHZN-Id6LKbrf3-6">
          <mxGeometry relative="1" as="geometry" />
        </mxCell>
        <mxCell id="ZW3YACwHZN-Id6LKbrf3-10" value="Mes" style="ellipse;whiteSpace=wrap;html=1;align=center;" vertex="1" parent="1">
          <mxGeometry x="720" y="540" width="100" height="40" as="geometry" />
        </mxCell>
        <mxCell id="ZW3YACwHZN-Id6LKbrf3-19" style="edgeStyle=orthogonalEdgeStyle;rounded=0;orthogonalLoop=1;jettySize=auto;html=1;exitX=0.5;exitY=1;exitDx=0;exitDy=0;" edge="1" parent="1" source="ZW3YACwHZN-Id6LKbrf3-11">
          <mxGeometry relative="1" as="geometry">
            <mxPoint x="730" y="620" as="targetPoint" />
          </mxGeometry>
        </mxCell>
        <mxCell id="ZW3YACwHZN-Id6LKbrf3-11" value="AÃ±o" style="ellipse;whiteSpace=wrap;html=1;align=center;" vertex="1" parent="1">
          <mxGeometry x="790" y="540" width="100" height="40" as="geometry" />
        </mxCell>
        <mxCell id="ZW3YACwHZN-Id6LKbrf3-22" style="edgeStyle=orthogonalEdgeStyle;rounded=0;orthogonalLoop=1;jettySize=auto;html=1;exitX=0.5;exitY=1;exitDx=0;exitDy=0;entryX=0.5;entryY=0;entryDx=0;entryDy=0;" edge="1" parent="1" source="ZW3YACwHZN-Id6LKbrf3-20" target="ZW3YACwHZN-Id6LKbrf3-1">
          <mxGeometry relative="1" as="geometry" />
        </mxCell>
        <mxCell id="ZW3YACwHZN-Id6LKbrf3-20" value="Direccion" style="ellipse;whiteSpace=wrap;html=1;align=center;" vertex="1" parent="1">
          <mxGeometry x="780" y="620" width="100" height="40" as="geometry" />
        </mxCell>
        <mxCell id="ZW3YACwHZN-Id6LKbrf3-23" style="edgeStyle=orthogonalEdgeStyle;rounded=0;orthogonalLoop=1;jettySize=auto;html=1;exitX=0.5;exitY=1;exitDx=0;exitDy=0;entryX=0.5;entryY=0;entryDx=0;entryDy=0;" edge="1" parent="1" source="ZW3YACwHZN-Id6LKbrf3-21" target="ZW3YACwHZN-Id6LKbrf3-1">
          <mxGeometry relative="1" as="geometry" />
        </mxCell>
        <mxCell id="ZW3YACwHZN-Id6LKbrf3-21" value="numero de telefono" style="ellipse;whiteSpace=wrap;html=1;align=center;" vertex="1" parent="1">
          <mxGeometry x="880" y="620" width="100" height="40" as="geometry" />
        </mxCell>
        <mxCell id="ZW3YACwHZN-Id6LKbrf3-42" style="edgeStyle=orthogonalEdgeStyle;rounded=0;orthogonalLoop=1;jettySize=auto;html=1;exitX=1;exitY=0.5;exitDx=0;exitDy=0;entryX=0;entryY=0.5;entryDx=0;entryDy=0;" edge="1" parent="1" source="ZW3YACwHZN-Id6LKbrf3-24" target="ZW3YACwHZN-Id6LKbrf3-41">
          <mxGeometry relative="1" as="geometry" />
        </mxCell>
        <mxCell id="ZW3YACwHZN-Id6LKbrf3-24" value="Edicion de curso" style="whiteSpace=wrap;html=1;align=center;" vertex="1" parent="1">
          <mxGeometry x="470" y="980" width="120" height="60" as="geometry" />
        </mxCell>
        <mxCell id="ZW3YACwHZN-Id6LKbrf3-27" style="edgeStyle=orthogonalEdgeStyle;rounded=0;orthogonalLoop=1;jettySize=auto;html=1;exitX=0.5;exitY=1;exitDx=0;exitDy=0;entryX=0.5;entryY=0;entryDx=0;entryDy=0;" edge="1" parent="1" source="ZW3YACwHZN-Id6LKbrf3-25" target="ZW3YACwHZN-Id6LKbrf3-24">
          <mxGeometry relative="1" as="geometry" />
        </mxCell>
        <mxCell id="ZW3YACwHZN-Id6LKbrf3-25" value="Matriculan en" style="shape=rhombus;perimeter=rhombusPerimeter;whiteSpace=wrap;html=1;align=center;" vertex="1" parent="1">
          <mxGeometry x="470" y="870" width="120" height="60" as="geometry" />
        </mxCell>
        <mxCell id="ZW3YACwHZN-Id6LKbrf3-28" value="N" style="text;html=1;align=center;verticalAlign=middle;resizable=0;points=[];autosize=1;strokeColor=none;fillColor=none;" vertex="1" parent="1">
          <mxGeometry x="530" y="830" width="20" height="20" as="geometry" />
        </mxCell>
        <mxCell id="ZW3YACwHZN-Id6LKbrf3-30" value="M" style="text;html=1;align=center;verticalAlign=middle;resizable=0;points=[];autosize=1;strokeColor=none;fillColor=none;" vertex="1" parent="1">
          <mxGeometry x="525" y="950" width="30" height="20" as="geometry" />
        </mxCell>
        <mxCell id="ZW3YACwHZN-Id6LKbrf3-38" style="edgeStyle=orthogonalEdgeStyle;rounded=0;orthogonalLoop=1;jettySize=auto;html=1;exitX=0.5;exitY=0;exitDx=0;exitDy=0;entryX=0.5;entryY=1;entryDx=0;entryDy=0;" edge="1" parent="1" source="ZW3YACwHZN-Id6LKbrf3-31" target="ZW3YACwHZN-Id6LKbrf3-24">
          <mxGeometry relative="1" as="geometry" />
        </mxCell>
        <mxCell id="ZW3YACwHZN-Id6LKbrf3-31" value="fecha de inicio" style="ellipse;whiteSpace=wrap;html=1;align=center;" vertex="1" parent="1">
          <mxGeometry x="450" y="1150" width="100" height="40" as="geometry" />
        </mxCell>
        <mxCell id="ZW3YACwHZN-Id6LKbrf3-35" style="edgeStyle=orthogonalEdgeStyle;rounded=0;orthogonalLoop=1;jettySize=auto;html=1;exitX=0.5;exitY=0;exitDx=0;exitDy=0;entryX=0.5;entryY=1;entryDx=0;entryDy=0;" edge="1" parent="1" source="ZW3YACwHZN-Id6LKbrf3-32" target="ZW3YACwHZN-Id6LKbrf3-31">
          <mxGeometry relative="1" as="geometry" />
        </mxCell>
        <mxCell id="ZW3YACwHZN-Id6LKbrf3-32" value="Dia" style="ellipse;whiteSpace=wrap;html=1;align=center;" vertex="1" parent="1">
          <mxGeometry x="360" y="1250" width="100" height="40" as="geometry" />
        </mxCell>
        <mxCell id="ZW3YACwHZN-Id6LKbrf3-36" style="edgeStyle=orthogonalEdgeStyle;rounded=0;orthogonalLoop=1;jettySize=auto;html=1;exitX=0.5;exitY=0;exitDx=0;exitDy=0;" edge="1" parent="1" source="ZW3YACwHZN-Id6LKbrf3-33">
          <mxGeometry relative="1" as="geometry">
            <mxPoint x="499.9999999999999" y="1190" as="targetPoint" />
          </mxGeometry>
        </mxCell>
        <mxCell id="ZW3YACwHZN-Id6LKbrf3-33" value="Mes" style="ellipse;whiteSpace=wrap;html=1;align=center;" vertex="1" parent="1">
          <mxGeometry x="440" y="1250" width="100" height="40" as="geometry" />
        </mxCell>
        <mxCell id="ZW3YACwHZN-Id6LKbrf3-37" style="edgeStyle=orthogonalEdgeStyle;rounded=0;orthogonalLoop=1;jettySize=auto;html=1;exitX=0.5;exitY=0;exitDx=0;exitDy=0;entryX=0.5;entryY=1;entryDx=0;entryDy=0;" edge="1" parent="1" source="ZW3YACwHZN-Id6LKbrf3-34" target="ZW3YACwHZN-Id6LKbrf3-31">
          <mxGeometry relative="1" as="geometry" />
        </mxCell>
        <mxCell id="ZW3YACwHZN-Id6LKbrf3-34" value="AÃ±o" style="ellipse;whiteSpace=wrap;html=1;align=center;" vertex="1" parent="1">
          <mxGeometry x="510" y="1250" width="100" height="40" as="geometry" />
        </mxCell>
        <mxCell id="ZW3YACwHZN-Id6LKbrf3-40" style="edgeStyle=orthogonalEdgeStyle;rounded=0;orthogonalLoop=1;jettySize=auto;html=1;exitX=0.5;exitY=0;exitDx=0;exitDy=0;entryX=0.5;entryY=1;entryDx=0;entryDy=0;" edge="1" parent="1" source="ZW3YACwHZN-Id6LKbrf3-39" target="ZW3YACwHZN-Id6LKbrf3-24">
          <mxGeometry relative="1" as="geometry" />
        </mxCell>
        <mxCell id="ZW3YACwHZN-Id6LKbrf3-39" value="Nivel" style="ellipse;whiteSpace=wrap;html=1;align=center;" vertex="1" parent="1">
          <mxGeometry x="560" y="1150" width="100" height="40" as="geometry" />
        </mxCell>
        <mxCell id="ZW3YACwHZN-Id6LKbrf3-46" style="edgeStyle=orthogonalEdgeStyle;rounded=0;orthogonalLoop=1;jettySize=auto;html=1;exitX=1;exitY=0.5;exitDx=0;exitDy=0;entryX=0;entryY=0.5;entryDx=0;entryDy=0;" edge="1" parent="1" source="ZW3YACwHZN-Id6LKbrf3-41" target="ZW3YACwHZN-Id6LKbrf3-45">
          <mxGeometry relative="1" as="geometry" />
        </mxCell>
        <mxCell id="ZW3YACwHZN-Id6LKbrf3-41" value="Edicion de" style="shape=rhombus;perimeter=rhombusPerimeter;whiteSpace=wrap;html=1;align=center;" vertex="1" parent="1">
          <mxGeometry x="700" y="980" width="120" height="60" as="geometry" />
        </mxCell>
        <mxCell id="ZW3YACwHZN-Id6LKbrf3-43" value="N" style="text;html=1;align=center;verticalAlign=middle;resizable=0;points=[];autosize=1;strokeColor=none;fillColor=none;" vertex="1" parent="1">
          <mxGeometry x="630" y="980" width="20" height="20" as="geometry" />
        </mxCell>
        <mxCell id="ZW3YACwHZN-Id6LKbrf3-44" value="M" style="text;html=1;align=center;verticalAlign=middle;resizable=0;points=[];autosize=1;strokeColor=none;fillColor=none;" vertex="1" parent="1">
          <mxGeometry x="855" y="970" width="30" height="20" as="geometry" />
        </mxCell>
        <mxCell id="ZW3YACwHZN-Id6LKbrf3-45" value="Curso" style="whiteSpace=wrap;html=1;align=center;" vertex="1" parent="1">
          <mxGeometry x="910" y="990" width="100" height="40" as="geometry" />
        </mxCell>
        <mxCell id="ZW3YACwHZN-Id6LKbrf3-48" style="edgeStyle=orthogonalEdgeStyle;rounded=0;orthogonalLoop=1;jettySize=auto;html=1;exitX=0.5;exitY=1;exitDx=0;exitDy=0;entryX=0.5;entryY=0;entryDx=0;entryDy=0;" edge="1" parent="1" source="ZW3YACwHZN-Id6LKbrf3-47" target="ZW3YACwHZN-Id6LKbrf3-45">
          <mxGeometry relative="1" as="geometry" />
        </mxCell>
        <mxCell id="ZW3YACwHZN-Id6LKbrf3-47" value="Identificador" style="ellipse;whiteSpace=wrap;html=1;align=center;fontStyle=4;" vertex="1" parent="1">
          <mxGeometry x="870" y="870" width="100" height="40" as="geometry" />
        </mxCell>
        <mxCell id="ZW3YACwHZN-Id6LKbrf3-50" style="edgeStyle=orthogonalEdgeStyle;rounded=0;orthogonalLoop=1;jettySize=auto;html=1;exitX=0.5;exitY=1;exitDx=0;exitDy=0;entryX=0.5;entryY=0;entryDx=0;entryDy=0;" edge="1" parent="1" source="ZW3YACwHZN-Id6LKbrf3-49" target="ZW3YACwHZN-Id6LKbrf3-45">
          <mxGeometry relative="1" as="geometry" />
        </mxCell>
        <mxCell id="ZW3YACwHZN-Id6LKbrf3-49" value="Materia" style="ellipse;whiteSpace=wrap;html=1;align=center;" vertex="1" parent="1">
          <mxGeometry x="990" y="870" width="100" height="40" as="geometry" />
        </mxCell>
        <mxCell id="ZW3YACwHZN-Id6LKbrf3-53" style="edgeStyle=orthogonalEdgeStyle;rounded=0;orthogonalLoop=1;jettySize=auto;html=1;exitX=0.5;exitY=1;exitDx=0;exitDy=0;entryX=0.5;entryY=0;entryDx=0;entryDy=0;" edge="1" parent="1" source="ZW3YACwHZN-Id6LKbrf3-52" target="ZW3YACwHZN-Id6LKbrf3-45">
          <mxGeometry relative="1" as="geometry" />
        </mxCell>
        <mxCell id="ZW3YACwHZN-Id6LKbrf3-52" value="modalidad" style="ellipse;whiteSpace=wrap;html=1;align=center;" vertex="1" parent="1">
          <mxGeometry x="1120" y="870" width="100" height="40" as="geometry" />
        </mxCell>
        <mxCell id="ZW3YACwHZN-Id6LKbrf3-55" style="edgeStyle=orthogonalEdgeStyle;rounded=0;orthogonalLoop=1;jettySize=auto;html=1;exitX=0.5;exitY=0;exitDx=0;exitDy=0;entryX=0.5;entryY=0;entryDx=0;entryDy=0;" edge="1" parent="1" source="ZW3YACwHZN-Id6LKbrf3-54" target="ZW3YACwHZN-Id6LKbrf3-45">
          <mxGeometry relative="1" as="geometry">
            <Array as="points">
              <mxPoint x="1160" y="950" />
              <mxPoint x="960" y="950" />
            </Array>
          </mxGeometry>
        </mxCell>
        <mxCell id="ZW3YACwHZN-Id6LKbrf3-54" value="Numero de horas" style="ellipse;whiteSpace=wrap;html=1;align=center;" vertex="1" parent="1">
          <mxGeometry x="1110" y="980" width="100" height="40" as="geometry" />
        </mxCell>
        <mxCell id="ZW3YACwHZN-Id6LKbrf3-57" style="edgeStyle=orthogonalEdgeStyle;rounded=0;orthogonalLoop=1;jettySize=auto;html=1;exitX=0;exitY=0.5;exitDx=0;exitDy=0;entryX=0.5;entryY=0;entryDx=0;entryDy=0;" edge="1" parent="1" source="ZW3YACwHZN-Id6LKbrf3-56" target="ZW3YACwHZN-Id6LKbrf3-45">
          <mxGeometry relative="1" as="geometry" />
        </mxCell>
        <mxCell id="ZW3YACwHZN-Id6LKbrf3-56" value="precio" style="ellipse;whiteSpace=wrap;html=1;align=center;" vertex="1" parent="1">
          <mxGeometry x="1190" y="930" width="100" height="40" as="geometry" />
        </mxCell>
      </root>
    </mxGraphModel>
  </diagram>
</mxfile>
